<?xml version="1.0" standalone="no"?><!DOCTYPE svg PUBLIC "-//W3C//DTD SVG 1.1//EN" "http://www.w3.org/Graphics/SVG/1.1/DTD/svg11.dtd"><svg t="1715419393906" class="icon" viewBox="0 0 1024 1024" version="1.1" xmlns="http://www.w3.org/2000/svg" p-id="7015" xmlns:xlink="http://www.w3.org/1999/xlink" width="200" height="200"><path d="M627.989822 781.46222c106.561221-96.571107 247.532837-257.522951 247.532837-430.129929 0-244.757805-164.836889-352.429039-365.194185-351.319026-200.357296-1.665019-365.194185 153.736762-365.194185 346.878975 0 177.047029 140.971616 337.998874 247.532836 434.56998C213.400071 796.447392 69.653424 844.177939 69.653424 900.233582c0 68.265782 212.01243 123.766418 442.340069 123.766418s442.340069-55.500636 442.340069-123.766418c0.555006-56.055642-145.411666-104.341196-326.34374-118.771362zM216.730109 346.89224c1.110013-157.621806 134.866546-284.163257 298.038416-283.053244 162.061857 2.220025 291.378339 130.981501 289.158314 287.493295s-135.976558 281.388225-298.038416 278.613193c-160.396838-2.220025-289.158314-128.206469-289.158314-283.053244zM511.993493 987.924587c-184.817118 0-378.514338-39.405452-378.514338-87.691005 0-41.070471 140.971616-76.035871 297.483409-84.915974 9.990114 8.325095 18.870216 15.540178 27.195312 22.200255-50.505579 5.550064-85.47098 19.425223-85.47098 34.965401 0 21.090242 62.160712 37.740433 139.306597 37.740432s139.306597-17.205197 139.306596-37.740432c0-16.095184-37.185426-29.970343-89.356024-35.520408 8.325095-6.660076 17.205197-13.875159 27.195312-22.200254 158.176813 8.880102 301.368454 43.845502 301.368454 85.47098 0 48.84056-193.142213 87.691005-378.514338 87.691005z" p-id="7016" fill="#13227a"></path><path d="M710.68577 441.798328a101.677165 101.677165 0 0 0 17.205197-58.275668c0-35.520407-14.985172-65.490751-42.73549-81.585935-7.770089-64.935744-43.845502-112.111285-87.691005-112.111285H427.07752c-43.845502 0-79.920916 47.730547-87.691005 112.111285-27.750318 16.095184-42.73549 46.620534-42.73549 82.140941A101.677165 101.677165 0 0 0 313.856222 442.353334v52.725604a9.934614 9.934614 0 0 0 9.990115 9.990115H397.107176a9.934614 9.934614 0 0 0 9.990115-9.990115v-17.205197h210.34741a140.361109 140.361109 0 0 0 0 17.205197v0.555007a9.934614 9.934614 0 0 0 9.990115 9.990114h73.26084a9.934614 9.934614 0 0 0 9.990114-9.990114v-53.835617z m-31.635363-58.275668a30.802853 30.802853 0 0 1-30.525349 30.52535 30.414349 30.414349 0 0 1-30.52535-30.52535 30.52535 30.52535 0 0 1 61.050699 0z m-303.588479 30.52535a30.52535 30.52535 0 0 1 0-61.0507 30.52535 30.52535 0 1 1 0 61.0507z m11.100127-124.321425a86.192488 86.192488 0 0 0-17.205197 1.665019c8.880102-42.73549 31.635363-73.815846 57.720662-73.815846H596.909466c26.085299 0 48.84056 31.080356 57.720662 73.815846a47.730547 47.730547 0 0 0-8.880102-0.555006v-0.555007a48.563057 48.563057 0 1 0-97.126113 0l-162.061858-0.555006zM587.474358 410.717972H436.512628a9.102104 9.102104 0 0 1-8.880102-8.880102 9.546109 9.546109 0 0 1 8.880102-8.880102h150.96173a9.102104 9.102104 0 0 1 8.880102 8.880102 8.436097 8.436097 0 0 1-8.880102 8.880102z m0-26.640306H436.512628a8.880102 8.880102 0 0 1 0-17.760203h150.96173a9.102104 9.102104 0 0 1 8.880102 8.880101 8.436097 8.436097 0 0 1-8.880102 8.880102z m-19.980229-94.351081a29.970343 29.970343 0 0 1 59.940687 0z" p-id="7017" fill="#13227a"></path></svg>