<?xml version="1.0" standalone="no"?><!DOCTYPE svg PUBLIC "-//W3C//DTD SVG 1.1//EN" "http://www.w3.org/Graphics/SVG/1.1/DTD/svg11.dtd"><svg t="1715524602016" class="icon" viewBox="0 0 1024 1024" version="1.1" xmlns="http://www.w3.org/2000/svg" p-id="27393" xmlns:xlink="http://www.w3.org/1999/xlink" width="200" height="200"><path d="M782.222222 967.111111v-56.888889h128v-128h56.888889v128a56.888889 56.888889 0 0 1-56.888889 56.888889h-128z m-540.444444 0H113.777778a56.888889 56.888889 0 0 1-56.888889-56.888889v-128h56.888889v128h128v56.888889z m-16.156445-251.52l173.511111-52.110222s25.088-8.206222 25.088-55.992889c0 0 39.096889 51.669333 91.192889 58.424889a141.212444 141.212444 0 0 0 88.775111-47.303111s0.483556 40.064 32.312889 48.768l172.245334 47.303111s-107.008 152.177778-291.029334 149.617778c0 0-2.289778 0.142222-6.499555 0.142222a365.624889 365.624889 0 0 1-285.610667-148.849778h0.014222z m192.583111-151.552H119.395556V544.995556H119.466667V514.844444h272.170666c-19.086222-46.620444-32.967111-113.294222-34.602666-208.625777 0 0 0-145.536 162.005333-137.827556 0 0 141.752889-10.595556 158.151111 130.119111 0 0 3.043556 121.969778-35.242667 216.334222H887.466667v30.151112h0.071111v19.043555H615.822222a127.36 127.36 0 0 1-93.866666 58.311111 47.502222 47.502222 0 0 1-5.489778 0.256c-15.345778 0-60.060444-4.992-98.332445-58.567111h0.071111zM967.111111 241.777778h-56.888889V113.777778h-128V56.888889h128a56.888889 56.888889 0 0 1 56.888889 56.888889v128zM113.777778 241.777778H56.888889V113.777778a56.888889 56.888889 0 0 1 56.888889-56.888889h128v56.888889H113.777778v128z" fill="#1296db" p-id="27394"></path></svg>