<?xml version="1.0" standalone="no"?><!DOCTYPE svg PUBLIC "-//W3C//DTD SVG 1.1//EN" "http://www.w3.org/Graphics/SVG/1.1/DTD/svg11.dtd"><svg t="1715419808578" class="icon" viewBox="0 0 1024 1024" version="1.1" xmlns="http://www.w3.org/2000/svg" p-id="9890" xmlns:xlink="http://www.w3.org/1999/xlink" width="200" height="200"><path d="M693.434182 339.781818c0-92.625455-75.310545-167.563636-168.215273-167.563636A167.889455 167.889455 0 0 0 357.003636 339.781818c0 92.485818 75.310545 167.517091 168.215273 167.517091a167.842909 167.842909 0 0 0 168.215273-167.563636m235.613091 531.502545c1.117091 3.584 1.861818 7.354182 1.861818 11.310546a39.517091 39.517091 0 0 1-79.080727 0v-0.139637h-1.024a316.043636 316.043636 0 0 0-315.578182-296.075636 316.090182 316.090182 0 0 0-315.624727 296.075636h-0.93091v0.139637a39.517091 39.517091 0 0 1-79.034181 0c0-3.723636 0.698182-7.261091 1.629091-10.705455A394.798545 394.798545 0 0 1 380.276364 538.996364 245.992727 245.992727 0 0 1 278.341818 339.781818C278.341818 203.543273 389.026909 93.090909 525.498182 93.090909a246.877091 246.877091 0 0 1 247.156363 246.690909 245.806545 245.806545 0 0 1-95.371636 194.327273 394.565818 394.565818 0 0 1 251.764364 337.128727" p-id="9891" fill="#1296db"></path></svg>