<?xml version="1.0" standalone="no"?><!DOCTYPE svg PUBLIC "-//W3C//DTD SVG 1.1//EN" "http://www.w3.org/Graphics/SVG/1.1/DTD/svg11.dtd"><svg t="1715419904532" class="icon" viewBox="0 0 1024 1024" version="1.1" xmlns="http://www.w3.org/2000/svg" p-id="12961" xmlns:xlink="http://www.w3.org/1999/xlink" width="200" height="200"><path d="M661.813 734.064H370.589c-11.516 0-20.813-9.116-20.813-20.874V420.707l-138.684 0.12c-11.637 0-21.535-9.237-21.355-20.634-0.18-6.119 2.76-11.277 6.359-15.356L501.294 79.875c8.157-8.039 21.595-7.918 29.514-0.241l305.199 305.202c8.399 8.517 8.399 21.835 0 29.992-4.016 4.319-9.415 5.999-14.334 5.999H682.568V713.19c0.18 11.758-8.879 20.874-20.755 20.874z" fill="#0071BC" p-id="12962"></path><path d="M915.333 883.906c19.435 0 35.15 15.476 35.15 35.03 0.24 19.437-15.716 34.792-35.15 34.912l-798.875-0.12c-19.194 0-34.911-15.355-34.911-34.792 0-19.555 15.717-35.03 34.911-35.03h798.875z" fill="#00A0E9" p-id="12963"></path></svg>