<?xml version="1.0" standalone="no"?><!DOCTYPE svg PUBLIC "-//W3C//DTD SVG 1.1//EN" "http://www.w3.org/Graphics/SVG/1.1/DTD/svg11.dtd"><svg t="1715508801914" class="icon" viewBox="0 0 1024 1024" version="1.1" xmlns="http://www.w3.org/2000/svg" p-id="21989" xmlns:xlink="http://www.w3.org/1999/xlink" width="200" height="200"><path d="M876.5 419.1c-0.4-1.4-0.7-2.8-1.1-4.2-19.1-73.4-59.7-138.3-114.8-187.2-1.1-1-2.2-1.9-3.3-2.9-21-18.2-44-34.2-68.7-47.5-1.3-0.7-2.5-1.4-3.8-2l-2.4 4.4 3.9 2.1c24.3 13.1 47 28.8 67.6 46.7 1.1 1 2.2 1.9 3.3 2.9 54.3 48.3 94.4 112.1 113.3 184.5 0.4 1.4 0.7 2.8 1.1 4.2 7.1 28.7 10.9 58.6 10.9 89.4 0 28.6-3.3 56.5-9.4 83.3-0.3 1.4-0.7 2.9-1 4.3l4.8 1.5c0.4-1.4 0.7-2.8 1-4.3 6.3-27.3 9.6-55.6 9.6-84.8 0-31.1-3.8-61.4-11-90.4zM745.7 797.6c-1.1 0.9-2.3 1.9-3.4 2.8-4.2 3.3-8.4 6.6-12.7 9.7-1.2 0.9-2.4 1.7-3.5 2.5-60.9 43.5-135.4 69.1-215.7 69.1-65.6 0-127.2-17-180.7-46.9-1.3-0.7-2.5-1.4-3.8-2.1-27.2-15.6-52.2-34.5-74.5-56.1-1.1-1-2.1-2-3.1-3.1l-3.4 3.7 3.1 3.1c22.6 21.9 47.9 41.1 75.5 56.8 1.3 0.7 2.5 1.4 3.8 2.1 54.2 30.3 116.7 47.5 183.1 47.5 81.3 0 156.7-25.9 218.4-69.9 1.2-0.8 2.4-1.7 3.5-2.6 4.4-3.2 8.7-6.5 12.9-9.9 1.1-0.9 2.3-1.8 3.4-2.7l-2.9-4zM322.4 182.7c-1.3 0.7-2.5 1.5-3.8 2.2-4.2 2.5-8.4 5.1-12.5 7.7-1.2 0.8-2.4 1.6-3.7 2.4-65.1 43.2-116.1 106.1-144.4 180.2-0.6 1.4-1.1 2.7-1.6 4.1-15 40.6-23.2 84.5-23.2 130.3 0 16.7 1.1 33.1 3.2 49.2 0.2 1.5 0.4 2.9 0.6 4.3l5-1c-0.2-1.4-0.4-2.9-0.6-4.3-2.1-15.8-3.1-31.9-3.1-48.2 0-45.2 8.1-88.6 23-128.8 0.5-1.4 1-2.8 1.6-4.1 28-73 78.3-135 142.6-177.6 1.2-0.8 2.4-1.6 3.7-2.4 4-2.6 8.1-5.1 12.3-7.6 1.3-0.8 2.5-1.5 3.8-2.2l-2.9-4.2z" fill="#d81e06" p-id="21990"></path><path d="M679.3 185.1c-5.6 0-10.2-4.6-10.2-10.2s4.6-10.2 10.2-10.2 10.2 4.6 10.2 10.2-4.6 10.2-10.2 10.2z m0-15.5c-2.9 0-5.2 2.3-5.2 5.2s2.3 5.2 5.2 5.2c2.9 0 5.2-2.3 5.2-5.2s-2.4-5.2-5.2-5.2zM327.8 191.3c-5.6 0-10.2-4.6-10.2-10.2s4.6-10.2 10.2-10.2 10.2 4.6 10.2 10.2c0.1 5.6-4.5 10.2-10.2 10.2z m0-15.5c-2.9 0-5.2 2.3-5.2 5.2s2.3 5.2 5.2 5.2c2.9 0 5.2-2.3 5.2-5.2s-2.3-5.2-5.2-5.2zM240.5 780.8c-5.6 0-10.2-4.6-10.2-10.2s4.6-10.2 10.2-10.2 10.2 4.6 10.2 10.2-4.5 10.2-10.2 10.2z m0-15.4c-2.9 0-5.2 2.3-5.2 5.2 0 2.9 2.3 5.2 5.2 5.2s5.2-2.3 5.2-5.2c0.1-2.9-2.3-5.2-5.2-5.2zM141.4 579.6c-5.6 0-10.2-4.6-10.2-10.2s4.6-10.2 10.2-10.2 10.2 4.6 10.2 10.2-4.5 10.2-10.2 10.2z m0-15.5c-2.9 0-5.2 2.3-5.2 5.2s2.3 5.2 5.2 5.2 5.2-2.3 5.2-5.2-2.3-5.2-5.2-5.2zM751.9 806c-5.6 0-10.2-4.6-10.2-10.2s4.6-10.2 10.2-10.2 10.2 4.6 10.2 10.2-4.5 10.2-10.2 10.2z m0-15.5c-2.9 0-5.2 2.3-5.2 5.2 0 2.9 2.3 5.2 5.2 5.2s5.2-2.3 5.2-5.2c0.1-2.8-2.3-5.2-5.2-5.2zM871.2 613.5c-5.6 0-10.2-4.6-10.2-10.2s4.6-10.2 10.2-10.2 10.2 4.6 10.2 10.2-4.5 10.2-10.2 10.2z m0-15.5c-2.9 0-5.2 2.3-5.2 5.2 0 2.9 2.3 5.2 5.2 5.2 2.9 0 5.2-2.3 5.2-5.2 0.1-2.9-2.3-5.2-5.2-5.2z" fill="#d81e06" p-id="21991"></path><path d="M104.6 512.4c0-59.8 12.9-116.7 36.2-167.9l-5.8-2.6-3.3-1.5c-23.8 52.5-37.1 110.7-37.1 172 0 213.7 161.3 390.4 368.5 414.8l1.2-9.9C262 893.5 104.6 721 104.6 512.4zM562.5 97.8l-1.2 9.9C763.1 132 920 304.2 920 512.4c0 58.2-12.3 113.5-34.3 163.7-46.3 105.2-135.9 187.3-246 223.6l3.1 9.5c112.8-37.1 204.5-121.2 252-229 22.6-51.4 35.2-108.1 35.2-167.8 0-213.3-160.8-389.7-367.5-414.6zM140.8 344.5l-5.8-2.6z" fill="#d81e06" opacity=".5" p-id="21992"></path><path d="M566.4 64l-4 33.7c194.8 23.4 348.8 181.5 365.9 378.1l33.8-2.8C943.7 260.3 777.2 89.3 566.4 64zM95.7 543.9l-33.8 2.8c16.6 215 184.4 388.3 397 413.3l4-33.7C266.3 903.2 111 742.8 95.7 543.9z" fill="#d81e06" opacity=".5" p-id="21993"></path><path d="M515.7 169.3h3.2v26.5h-3.2zM503.642 169.467l3.198-0.112 0.925 26.484-3.198 0.112zM491.8 170.146l3.193-0.223 1.848 26.436-3.192 0.223zM479.81 171.147l3.182-0.334 2.77 26.354-3.183 0.335zM467.99 172.537l3.168-0.445 3.689 26.243-3.169 0.445zM456.105 174.396l3.152-0.556 4.6 26.097-3.151 0.556zM444.365 176.71l3.13-0.665 5.51 25.92-3.13 0.665zM432.649 179.399l3.105-0.774 6.41 25.713-3.105 0.774zM421.127 182.477l3.076-0.882 7.303 25.474-3.076 0.882zM409.709 185.95l3.043-0.99 8.189 25.205-3.044 0.989zM398.383 189.843l3.007-1.094 9.063 24.902-3.007 1.094zM387.162 194.071l2.967-1.198 9.927 24.57-2.967 1.2zM376.117 198.697l2.923-1.302 10.777 24.208-2.923 1.301zM365.26 203.745l2.876-1.403 11.618 23.818-2.877 1.403zM354.576 209.196l2.826-1.502 12.441 23.397-2.825 1.502zM344.097 214.986l2.771-1.6 13.25 22.95-2.77 1.6zM333.84 221.168l2.714-1.696 14.042 22.472-2.714 1.696zM323.878 227.61l2.653-1.79 14.818 21.968-2.652 1.79zM314.025 234.446l2.589-1.881 15.576 21.438-2.589 1.881zM304.512 241.632l2.522-1.97 16.316 20.882-2.522 1.97zM295.122 249.09l2.451-2.057 17.035 20.299-2.452 2.057zM286.02 256.99l2.379-2.142 17.73 19.693-2.377 2.14zM277.329 265.078l2.302-2.223 18.41 19.061-2.303 2.223zM268.858 273.59l2.223-2.302 19.061 18.41L287.92 292zM260.688 282.333l2.141-2.378 19.692 17.73-2.141 2.379zM252.81 291.335l2.057-2.451 20.3 17.034-2.058 2.451zM245.283 300.625l1.97-2.522 20.882 16.316-1.97 2.522zM238.012 310.15l1.881-2.588 21.439 15.577-1.881 2.589zM231.115 319.988l1.79-2.653 21.968 14.819-1.79 2.653zM224.58 329.978l1.695-2.713 22.472 14.042-1.695 2.714zM218.385 340.223l1.6-2.77 22.949 13.25-1.6 2.77zM212.649 350.692l1.502-2.825 23.397 12.441-1.502 2.826zM207.196 361.333l1.402-2.876 23.819 11.617-1.403 2.877zM202.062 372.222l1.301-2.923 24.208 10.777L226.27 383zM197.365 383.144l1.199-2.967 24.57 9.927-1.198 2.967zM193.128 394.342l1.094-3.007 24.902 9.063-1.094 3.007zM189.181 405.609l0.989-3.043 25.204 8.188-0.989 3.044zM185.657 417.107l0.881-3.077 25.475 7.304-0.882 3.076zM182.548 428.626l0.774-3.105 25.713 6.41-0.774 3.105zM179.813 440.333l0.665-3.13 25.92 5.51-0.666 3.13zM177.534 452.086l0.556-3.152 26.097 4.6-0.555 3.152zM175.634 463.846l0.446-3.17 26.243 3.69-0.446 3.169zM174.106 475.728l0.335-3.183 26.354 2.77-0.334 3.182zM173.118 487.676l0.223-3.193 26.436 1.849-0.223 3.192zM172.472 499.652l0.112-3.198 26.484 0.925-0.112 3.198zM172.237 511.641v-3.2h26.5v3.2zM172.423 523.53l-0.111-3.198 26.484-0.925 0.111 3.198zM173.05 535.502l-0.223-3.193 26.436-1.848 0.224 3.192zM173.982 547.484l-0.334-3.182 26.354-2.77 0.335 3.183zM175.514 559.343l-0.445-3.17 26.243-3.688 0.445 3.169zM177.272 571.152l-0.555-3.151 26.097-4.6 0.556 3.15zM179.502 582.915l-0.666-3.13 25.92-5.51 0.665 3.13zM182.279 594.574l-0.774-3.105 25.713-6.41 0.774 3.105zM185.35 606.154l-0.883-3.076 25.475-7.303 0.882 3.076zM188.802 617.592l-0.989-3.044 25.204-8.188 0.99 3.043zM192.647 628.9l-1.095-3.006 24.902-9.063 1.095 3.007zM196.967 640.109l-1.198-2.967 24.57-9.927 1.2 2.967zM201.544 651.105l-1.301-2.923 24.208-10.777 1.301 2.923zM206.678 661.976l-1.403-2.877 23.819-11.617 1.403 2.876zM212.051 672.613l-1.502-2.826 23.397-12.441 1.502 2.825zM217.861 683.113l-1.6-2.772 22.95-13.25 1.6 2.772zM223.975 693.366l-1.696-2.714 22.472-14.042 1.696 2.713zM230.484 703.39l-1.79-2.653 21.969-14.818 1.79 2.652zM237.308 713.265l-1.88-2.59 21.438-15.576 1.881 2.589zM244.523 722.748l-1.97-2.522 20.882-16.316 1.97 2.522zM252.016 732.067l-2.057-2.451 20.299-17.035 2.057 2.452zM259.83 741.159l-2.141-2.378 19.692-17.731 2.141 2.377zM268.046 749.915l-2.223-2.302 19.062-18.41 2.223 2.302zM276.501 758.478l-2.301-2.223 18.41-19.061 2.3 2.223zM285.16 766.657l-2.377-2.141 17.731-19.692 2.378 2.14zM294.3 774.462l-2.452-2.057 17.034-20.3 2.451 2.058zM303.591 781.97l-2.522-1.97 16.316-20.882 2.522 1.97zM313.024 789.234l-2.59-1.88 15.577-21.44 2.59 1.882zM322.905 796.15l-2.653-1.79 14.82-21.969 2.652 1.79zM332.906 802.73l-2.714-1.695 14.043-22.472 2.713 1.695zM343.1 808.84l-2.77-1.6 13.25-22.949 2.77 1.6zM353.638 814.632l-2.826-1.502 12.442-23.397 2.825 1.503zM364.29 820.04l-2.875-1.403 11.617-23.818 2.877 1.403zM375.078 825.208l-2.924-1.302 10.778-24.208 2.923 1.302zM386.063 829.795l-2.967-1.199 9.927-24.57 2.967 1.198zM397.2 834.209l-3.007-1.095 9.063-24.902 3.007 1.095zM408.575 838.034l-3.044-0.99 8.189-25.203 3.043 0.988zM419.969 841.593l-3.076-0.882 7.303-25.474 3.076 0.882zM431.556 844.682l-3.105-0.774 6.41-25.713 3.105 0.775zM443.223 847.491l-3.13-0.665 5.51-25.92 3.13 0.666zM454.905 849.746l-3.152-0.556 4.6-26.097 3.152 0.556zM466.82 851.554l-3.17-0.445 3.69-26.243 3.169 0.445zM478.676 853.18l-3.182-0.334 2.77-26.354 3.181 0.334zM490.55 854.156l-3.192-0.223 1.849-26.437 3.192 0.224zM502.5 854.802l-3.198-0.111 0.925-26.484 3.198 0.111zM514.473 855.016h-3.2v-26.5h3.2zM526.44 854.896l-3.197 0.111-0.925-26.484 3.198-0.111zM538.372 854.242l-3.192 0.223-1.849-26.436 3.193-0.224zM550.317 853.228l-3.182 0.335-2.77-26.355 3.183-0.334zM562.148 851.747l-3.17 0.445-3.688-26.242 3.169-0.446zM574.043 849.964l-3.15 0.556-4.601-26.097 3.151-0.556zM585.794 847.733l-3.13 0.665-5.51-25.92 3.13-0.665zM597.462 844.992l-3.105 0.775-6.41-25.713 3.105-0.774zM609.05 841.864l-3.076 0.882-7.303-25.475 3.076-0.882zM620.412 838.423l-3.044 0.989-8.188-25.204 3.043-0.99zM631.772 834.598l-3.007 1.094-9.063-24.902 3.007-1.094zM642.98 830.256l-2.966 1.199-9.927-24.571 2.967-1.199zM653.985 825.637l-2.923 1.301-10.778-24.208 2.923-1.301zM664.81 820.58l-2.876 1.404-11.618-23.819 2.876-1.402zM675.526 815.254l-2.825 1.502-12.442-23.397 2.825-1.502zM686.005 809.423l-2.77 1.6-13.25-22.949 2.77-1.6zM696.327 803.314l-2.714 1.696-14.042-22.472 2.714-1.696zM706.34 796.825l-2.653 1.79-14.819-21.969 2.653-1.79zM716.089 789.955l-2.59 1.881-15.576-21.438 2.589-1.881zM725.687 782.79l-2.522 1.97-16.316-20.881 2.522-1.97zM734.985 775.225l-2.45 2.057-17.035-20.299 2.451-2.057zM744.094 767.344l-2.378 2.14-17.731-19.691 2.377-2.141zM752.784 759.276l-2.302 2.223-18.41-19.061 2.302-2.223zM761.265 750.73l-2.223 2.3-19.061-18.409 2.223-2.301zM769.53 742.063l-2.142 2.378-19.692-17.731 2.141-2.378zM777.342 732.987l-2.057 2.452-20.299-17.035 2.057-2.45zM784.85 723.712l-1.97 2.521L762 709.917l1.97-2.521zM792.049 714.165l-1.881 2.59-21.439-15.577 1.881-2.59zM799 704.324l-1.79 2.653-21.968-14.819 1.79-2.652zM805.518 694.363l-1.696 2.714-22.472-14.043 1.696-2.713zM811.781 684.082l-1.6 2.77-22.949-13.25 1.6-2.77zM817.543 673.622l-1.503 2.826-23.397-12.442 1.503-2.825zM822.94 663.012l-1.403 2.876-23.818-11.618 1.403-2.876zM828.12 652.147l-1.302 2.924-24.208-10.778 1.302-2.923zM832.774 641.216l-1.199 2.967-24.57-9.927 1.198-2.967zM837.084 630.051l-1.094 3.007-24.902-9.063 1.094-3.007zM840.931 618.736l-0.989 3.043-25.204-8.188 0.989-3.044zM844.499 607.276l-0.882 3.076-25.474-7.303 0.881-3.077zM847.617 595.732l-0.774 3.105-25.713-6.41 0.774-3.105zM850.37 583.967l-0.665 3.13-25.92-5.51 0.665-3.13zM852.695 572.31l-0.556 3.15-26.097-4.6 0.555-3.151zM854.447 560.5l-0.445 3.17-26.243-3.69 0.445-3.169zM855.989 548.631l-0.334 3.182-26.355-2.769 0.335-3.182zM857.05 536.67l-0.224 3.193-26.436-1.849 0.223-3.192zM857.722 524.72l-0.112 3.198-26.484-0.925 0.112-3.198zM857.953 512.769v3.2h-26.5v-3.2zM857.756 500.834l0.111 3.198-26.484 0.925-0.111-3.198zM857.139 488.83l0.223 3.192-26.436 1.849-0.223-3.193zM856.053 476.877l0.334 3.183-26.354 2.769-0.334-3.182zM854.71 465.085l0.445 3.17-26.243 3.688-0.445-3.169zM852.743 453.231l0.555 3.152-26.097 4.6-0.556-3.151zM850.601 441.368l0.666 3.13-25.92 5.509-0.665-3.13zM847.873 429.76l0.774 3.106-25.713 6.41-0.774-3.105zM844.736 418.231l0.882 3.076-25.474 7.304-0.882-3.077zM841.245 406.793l0.988 3.044-25.204 8.188-0.988-3.043zM837.401 395.513l1.094 3.007-24.902 9.063-1.094-3.007zM833.152 384.29l1.199 2.967-24.571 9.927-1.199-2.967zM828.484 373.237l1.302 2.923-24.208 10.778-1.301-2.923zM823.514 362.425l1.403 2.876-23.818 11.618-1.403-2.876zM818.109 351.663l1.502 2.825-23.397 12.442-1.502-2.825zM812.298 341.204l1.6 2.772-22.949 13.25-1.6-2.772zM806.174 330.963l1.695 2.714-22.472 14.042-1.695-2.713zM799.7 320.928l1.789 2.653-21.968 14.819-1.79-2.653zM792.76 311.12l1.88 2.589-21.438 15.576-1.881-2.588zM785.68 301.573l1.97 2.522-20.881 16.316-1.97-2.522zM778.151 292.204l2.057 2.45-20.299 17.035-2.057-2.451zM770.251 283.16l2.141 2.378L752.7 303.27l-2.141-2.378zM762.175 274.388l2.223 2.302-19.061 18.41-2.223-2.303zM753.638 265.93l2.302 2.222-18.41 19.062-2.302-2.223zM744.958 257.741l2.378 2.141-17.731 19.692-2.378-2.14zM735.875 249.865l2.45 2.057-17.033 20.3-2.452-2.057zM726.599 242.34l2.522 1.971-16.316 20.882-2.522-1.97zM717.038 235.198l2.589 1.88-15.577 21.44-2.589-1.882zM707.242 228.265l2.653 1.79-14.82 21.968-2.652-1.79zM697.206 221.74l2.714 1.695-14.043 22.472-2.713-1.696zM686.996 215.58l2.77 1.6-13.25 22.95-2.77-1.6zM676.48 209.692l2.825 1.502-12.441 23.397-2.826-1.503zM665.88 204.252l2.876 1.403-11.618 23.818-2.876-1.403zM655.003 199.15l2.923 1.301-10.777 24.208-2.923-1.301zM644.098 194.479l2.967 1.198-9.927 24.571-2.967-1.198zM632.944 190.159l3.007 1.094-9.063 24.902-3.007-1.094zM621.606 186.253l3.044 0.989-8.189 25.204-3.043-0.989zM610.138 182.75l3.076 0.883-7.303 25.474-3.076-0.882zM598.566 179.59l3.105 0.773-6.41 25.713-3.106-0.774zM586.857 176.934l3.13 0.666-5.51 25.92-3.13-0.666zM575.227 174.603l3.151 0.555-4.6 26.098-3.152-0.556zM563.375 172.727l3.17 0.446-3.69 26.243-3.169-0.446zM551.48 171.287l3.183 0.334-2.77 26.354-3.182-0.334zM539.545 170.224l3.192 0.224-1.848 26.436-3.193-0.223zM527.668 169.556l3.198 0.111-0.925 26.484-3.198-0.111z" fill="#d81e06" p-id="21994"></path><path d="M515.7 169.3h3.2v26.5h-3.2z" fill="#d81e06" p-id="21995"></path><path d="M174.9 679l-42.8 1.6 15.2 31.2zM835.1 704.4l25.4 34.6 17.3-29.9zM514.8 148.3l21-47.5h-42z" fill="#d81e06" p-id="21996"></path><path d="M510 828.6h5.8v43.9H510zM514.4 151.1h5.8V195h-5.8zM830.685 489.46l43.794-3.063 0.405 5.786-43.795 3.062zM158.102 488.317l0.405-5.786 43.795 3.062-0.405 5.786z" fill="#d81e06" p-id="21997"></path></svg>