<?xml version="1.0" standalone="no"?><!DOCTYPE svg PUBLIC "-//W3C//DTD SVG 1.1//EN" "http://www.w3.org/Graphics/SVG/1.1/DTD/svg11.dtd"><svg t="1715507386750" class="icon" viewBox="0 0 1024 1024" version="1.1" xmlns="http://www.w3.org/2000/svg" p-id="18600" xmlns:xlink="http://www.w3.org/1999/xlink" width="200" height="200"><path d="M928 960H736c-17.6 0-32-14.4-32-32s14.4-32 32-32h160V736c0-17.6 14.4-32 32-32s32 14.4 32 32v192c0 17.6-14.4 32-32 32z m0-640c-17.6 0-32-14.4-32-32V128H736c-17.6 0-32-14.4-32-32s14.4-32 32-32h192c17.6 0 32 14.4 32 32v192c0 17.6-14.4 32-32 32z m-128 163.2c0 78.4-11.2 153.6-30.4 227.2-4.8 16-20.8 25.6-36.8 20.8-16-4.8-25.6-20.8-20.8-38.4 19.2-67.2 28.8-137.6 28.8-209.6 0-118.4-94.4-214.4-212.8-214.4-36.8 0-73.6 9.6-105.6 28.8-14.4 8-33.6 3.2-41.6-11.2-8-14.4-3.2-33.6 11.2-41.6C432 220.8 480 208 526.4 208 678.4 208 800 331.2 800 483.2z m-273.6-152c83.2 0 152 68.8 152 153.6 0 32-1.6 64-6.4 96-1.6 16-17.6 28.8-33.6 25.6-16-1.6-28.8-17.6-25.6-35.2 3.2-28.8 6.4-57.6 6.4-88 0-51.2-40-91.2-91.2-91.2-49.6 0-91.2 41.6-91.2 91.2 0 81.6-20.8 161.6-62.4 232l-8 14.4c-8 14.4-27.2 19.2-41.6 11.2-12.8-8-19.2-25.6-12.8-38.4l1.6-3.2 1.6-3.2c40-64 60.8-137.6 60.8-211.2 0-84.8 67.2-153.6 150.4-153.6z m-211.2 144v9.6c0 51.2-11.2 102.4-33.6 147.2-8 16-25.6 20.8-40 14.4-14.4-8-20.8-25.6-14.4-41.6 16-33.6 25.6-70.4 27.2-108.8v-11.2c0-49.6 12.8-96 36.8-137.6 8-14.4 27.2-19.2 41.6-11.2 14.4 8 19.2 27.2 11.2 41.6-17.6 28.8-27.2 62.4-28.8 97.6zM288 128H128v160c0 17.6-14.4 32-32 32s-32-14.4-32-32V96c0-17.6 14.4-32 32-32h192c17.6 0 32 14.4 32 32s-14.4 32-32 32zM96 704c17.6 0 32 14.4 32 32v160h160c17.6 0 32 14.4 32 32s-14.4 32-32 32H96c-17.6 0-32-14.4-32-32V736c0-17.6 14.4-32 32-32z m401.6-220.8c0-17.6 12.8-30.4 30.4-30.4s30.4 14.4 30.4 30.4c0 110.4-30.4 217.6-88 310.4-9.6 14.4-27.2 19.2-41.6 9.6-14.4-9.6-19.2-27.2-9.6-41.6 51.2-83.2 78.4-179.2 78.4-278.4z m96 176c4.8-16 20.8-25.6 36.8-20.8 16 4.8 25.6 20.8 20.8 38.4-11.2 43.2-27.2 83.2-48 123.2-8 14.4-25.6 20.8-40 14.4-14.4-8-20.8-25.6-12.8-41.6 19.2-36.8 33.6-75.2 43.2-113.6z" fill="#1296db" p-id="18601"></path></svg>