<?xml version="1.0" standalone="no"?><!DOCTYPE svg PUBLIC "-//W3C//DTD SVG 1.1//EN" "http://www.w3.org/Graphics/SVG/1.1/DTD/svg11.dtd"><svg t="1715331950671" class="icon" viewBox="0 0 1024 1024" version="1.1" xmlns="http://www.w3.org/2000/svg" p-id="17870" xmlns:xlink="http://www.w3.org/1999/xlink" width="200" height="200"><path d="M403.911111 432.355556a79.644444 79.644444 0 1 0 79.644445 79.644444 79.644444 79.644444 0 0 0-79.644445-79.644444z" fill="#C0D043" p-id="17871"></path><path d="M892.017778 211.626667v600.746666H291.271111V211.626667h600.746667M944.355556 159.288889H238.933333v705.422222h705.422223V159.288889zM208.213333 567.978667A625.095111 625.095111 0 0 1 148.48 512a598.243556 598.243556 0 0 1 59.733333-55.637333v-65.991111A639.089778 639.089778 0 0 0 79.644444 512a639.089778 639.089778 0 0 0 128.568889 121.628444z" fill="#C0D043" p-id="17872"></path><path d="M403.911111 319.829333a277.162667 277.162667 0 0 0-81.92 12.856889v55.751111a232.448 232.448 0 0 1 81.92-16.270222c109.909333 0 209.351111 91.022222 255.431111 140.060445C606.890667 568.888889 506.993778 651.832889 403.911111 651.832889a234.040889 234.040889 0 0 1-81.92-15.815111v55.296a277.162667 277.162667 0 0 0 81.92 12.856889C582.997333 704.170667 728.177778 512 728.177778 512S582.997333 319.829333 403.911111 319.829333z" fill="#C0D043" p-id="17873"></path></svg>