<?xml version="1.0" standalone="no"?><!DOCTYPE svg PUBLIC "-//W3C//DTD SVG 1.1//EN" "http://www.w3.org/Graphics/SVG/1.1/DTD/svg11.dtd"><svg t="1715331031488" class="icon" viewBox="0 0 1024 1024" version="1.1" xmlns="http://www.w3.org/2000/svg" p-id="15874" xmlns:xlink="http://www.w3.org/1999/xlink" width="200" height="200"><path d="M157.44 670.72v-111.36c0-3.84-2.56-6.4-6.4-7.68l-78.08-15.36c-5.12-1.28-8.96 1.28-8.96 6.4v386.56c0 5.12 5.12 8.96 10.24 7.68l78.08-28.16c2.56-1.28 5.12-3.84 5.12-7.68v-128c0-3.84 3.84-7.68 7.68-7.68h139.52c2.56 0 5.12-1.28 6.4-2.56l75.52-106.24c2.56-3.84 1.28-8.96-2.56-10.24l-92.16-51.2c-3.84-2.56-8.96 0-10.24 3.84l-24.32 75.52c-1.28 2.56-3.84 5.12-7.68 5.12h-81.92c-6.4 0-10.24-3.84-10.24-8.96z m798.72-124.16L281.6 88.32c-1.28-1.28-2.56-1.28-3.84-1.28H204.8c-2.56 0-5.12 1.28-6.4 3.84L93.44 261.12c-1.28 1.28-1.28 2.56-1.28 3.84v53.76c0 2.56 1.28 5.12 3.84 6.4l596.48 376.32c1.28 1.28 2.56 1.28 3.84 1.28H742.4c1.28 0 2.56 0 3.84-1.28l209.92-142.08c5.12-3.84 5.12-10.24 0-12.8zM142.08 389.12l-43.52 49.92c-2.56 3.84-2.56 8.96 1.28 11.52l588.8 380.16c1.28 1.28 2.56 1.28 3.84 1.28H742.4c2.56 0 3.84-1.28 5.12-2.56l25.6-26.88c1.28-1.28 1.28-1.28 1.28-2.56l23.04-72.96c1.28-3.84-3.84-7.68-7.68-5.12-17.92 14.08-53.76 40.96-65.28 49.92-2.56 1.28-6.4 1.28-8.96 0-16.64-11.52-34.56-21.76-52.48-30.72h-1.28L152.32 387.84c-3.84-1.28-7.68-1.28-10.24 1.28z" fill="#13227a" p-id="15875"></path></svg>