<?xml version="1.0" standalone="no"?><!DOCTYPE svg PUBLIC "-//W3C//DTD SVG 1.1//EN" "http://www.w3.org/Graphics/SVG/1.1/DTD/svg11.dtd"><svg t="1714977262110" class="icon" viewBox="0 0 1037 1024" version="1.1" xmlns="http://www.w3.org/2000/svg" p-id="1545" xmlns:xlink="http://www.w3.org/1999/xlink" width="202.5390625" height="200"><path d="M434.058455 318.728477l311.94702 183.099338c6.781457 6.781457 6.781457 13.562914 0 20.34437l-311.94702 183.099338c-6.781457 6.781457-20.344371 0-20.344371-6.781457V332.291391c0-13.562914 13.562914-20.344371 20.344371-13.562914z" p-id="1546" fill="#13227a"></path><path d="M515.435938 1024c-284.821192 0-515.390728-230.569536-515.390728-515.390728C0.04521 230.569536 230.614746 0 515.435938 0s515.390728 230.569536 515.390729 515.390728c0 278.039735-230.569536 508.609272-515.390729 508.609272z m0-942.622517C278.084945 81.377483 81.422693 271.258278 81.422693 508.609272s196.662252 434.013245 434.013245 434.013245 434.013245-196.662252 434.013245-434.013245S752.786932 81.377483 515.435938 81.377483z" p-id="1547" fill="#13227a"></path></svg>